<svg id="Capa_1" enable-background="new 0 0 512 512" height="512" viewBox="0 0 512 512" width="512" xmlns="http://www.w3.org/2000/svg"><g><path d="m512 177.52c0 106.45-101.57 173.29-246.12 299.77-2.83 2.47-6.35 3.71-9.87 3.71-3.53 0-7.06-1.23-9.89-3.71-144.42-126.37-246.12-193.31-246.12-299.77 0-80.52 57.4-146.52 136-146.52 54.54 0 95.02 33.5 120 81.02 0-.01.01-.01.01-.02 24.98-47.51 65.45-81 119.99-81 78.61 0 136 66.01 136 146.52z" fill="#ff6a4d"/><path d="m512 177.52c0 106.45-101.57 173.29-246.12 299.77-2.83 2.47-6.35 3.71-9.87 3.71v-369c24.98-47.51 65.45-81 119.99-81 78.61 0 136 66.01 136 146.52z" fill="#f03800"/></g></svg>